<?xml version="1.0" encoding="UTF-8"?>
<svg id="Camada_1" xmlns="http://www.w3.org/2000/svg" version="1.1" viewBox="0 0 1080 1080">
  <!-- Generator: Adobe Illustrator 29.1.0, SVG Export Plug-In . SVG Version: 2.1.0 Build 142)  -->
  <path d="M722.1,927.7c-9.5,16.3,30.3,49.7-4,79.3-4.9,4.3-13.3,9.7-19.6,11-14.3,2.9-82.7,2.9-97,0-30.8-6.3-31.7-48.7-61.7-46.7-26.4,1.7-26.7,36.9-53.5,45.2-29.4,9.1-115,13.9-129.8-18.4s3.8-35.1,4.6-56.2c.7-17.1-55.4-47.3-69.6-59.1-11.8-9.8-36-40.5-46.8-44.9-23.3-9.5-61,9.5-86.7,13.5-37,5.8-156.4,19.1-153.5-41.1.9-19.1,26.7-67.1,36.6-86,27.7-53.2,102.9-155.3,111.2-208.3,16.2-102.7-28.4-310.2,13.8-394,69.8-138.7,243.1-4.2,343.3,6,101.7,10.3,160-46.6,248.7-66.6,89.5-20.2,156.8,28.1,163.8,119.7,8,104.6-15.6,227.7,1.6,328.1,11.3,65.9,111.2,188.3,140.7,260.3,7.7,18.6,19.3,42.6,3.9,60.7-22.2,26.2-121.1,20.4-153.8,14.4-19.6-3.6-53.7-20.8-71.5-15.4s-49.3,45.9-58.6,53.6c-9.6,8-60.1,41.6-62.1,44.9ZM353.2,238.4c-138.2.3-150.5,283,9.7,274.1,94.6-5.3,106.6-113.7,91.8-187.2-9.1-45.4-54.7-86.9-101.6-86.8ZM717.2,238.1c-92.3,9.7-106.8,124.7-87.4,197.7,25.4,95.3,170.7,97.4,199.4,2.6,10.5-34.7,7.3-95.7-4.1-129.9-16.5-49.4-55.6-75.9-107.8-70.4ZM469.8,478.4c41.4,11.4,95.3,19.7,135.9,1.7,16.3-7.2,9.7-16.7,1.5-28.7-38.1-55.5-124.3-38.5-137.4,26.9ZM592.2,502.2c-16.8-1.1-32.5,7.3-49.2,7.1-12.8-.2-28-6.3-40.8-7.1-12-.8-.9,15.2,1.7,18.7,24.1,32.3,81.2,23.6,88.3-18.7ZM398.9,709.9c-12.5,20,30.2,45.6,48.9,47.2,45.5,3.9,100-48.5,27.1-54.4-9.7-.8-73.4,3-76,7.2ZM587.9,706.9c-26.8,6.2-1.6,33.2,11.3,41.6,18,11.7,47.1,12.2,65.6,1.4,16.4-9.6,37.4-38.8,7.1-43.4-13.4-2.1-71.7-2.3-84,.5ZM490.7,794.9c-11.3,23.8,29.3,45.9,49.3,46.9,35.7,1.8,86.2-44.6,33.1-50.3-25.5-2.8-55.8,6.6-82.4,3.4Z"/>
  <path d="M316.9,359.5c1.6-1.5,29.8,1.4,38.2-17.9,7.5-17.1-2-21.3-5.9-33.2s28.1-11.3,37.1-9.9c41.2,6.4,43.1,77.4,38.4,109.3-9.5,64.8-95,69.4-106.3,2.8-1.2-7.2-3.4-49.4-1.5-51.2Z"/>
  <path d="M750.8,306.2c18.6,18.8,17.5,76.7,14.8,102.5-6.1,57.5-89.3,61.2-103.1,7.9s-4.4-57.3-1.9-60.2,15.2-3.5,21.2-7.7c28.1-19.4-1.3-45.4,2.2-50.4,20.5-6.1,50.5-8.6,66.8,7.9Z"/>
</svg>